<svg xmlns="http://www.w3.org/2000/svg" width="44" height="44" viewBox="0 0 44 44">
    <g fill="none" fill-rule="evenodd">
        <circle cx="21.5" cy="22.5" r="20.5" fill="#FFF"/>
        <path fill="#665CAC" fill-rule="nonzero" d="M22 0c12.148 0 22 9.852 22 22s-9.852 22-22 22S0 34.148 0 22 9.852 0 22 0zm-5.887 13.279c-.436-.16-.894-.16-1.363-.004-1.184.396-2.033 1.09-2.456 2.008-.41.887-.39 1.929.053 3.012 1.284 3.133 3.09 5.865 5.366 8.119 2.228 2.206 4.966 4.014 8.14 5.372.285.122.585.189.804.238.075.016.14.03.186.043.026.007.053.011.08.011h.025l.173-.006c1.455-.098 3.132-1.408 3.661-2.894.482-1.353-.398-2.022-1.105-2.56-.094-.07-.19-.144-.281-.216-.48-.384-.991-.738-1.485-1.08l-.307-.214c-.633-.442-1.202-.657-1.74-.657-.723 0-1.355.398-1.876 1.182-.23.348-.51.517-.856.517-.204 0-.435-.058-.689-.173-2.042-.92-3.5-2.332-4.335-4.195-.403-.9-.272-1.49.437-1.968.403-.272 1.153-.778 1.1-1.747-.06-1.1-2.503-4.412-3.532-4.788zM22.553 12c-.74 0-.88.507-.898.809-.042.698.66.747.996.77.081.006.158.012.222.021 4.51.669 6.585 2.728 7.16 7.109.01.074.011.165.013.261.005.342.017 1.054.81 1.069h.025l.12-.006c.193-.02.35-.09.469-.209.247-.249.23-.619.215-.916-.003-.073-.006-.142-.005-.202.057-4.48-3.967-8.543-8.612-8.694-.02 0-.038 0-.056.003-.01.002-.026.003-.055.003-.047 0-.104-.004-.164-.008-.073-.004-.156-.01-.24-.01zm.333 2.703c-.62 0-.787.42-.83.67-.043.243-.002.447.12.607.205.27.567.317.857.355.085.011.166.022.233.037 2.72.585 3.636 1.504 4.084 4.1.011.064.016.142.021.225.019.291.055.877.654.949l.128.007.093-.004.098-.01c.672-.099.651-.69.64-.973-.002-.08-.005-.155.002-.205l.003-.038c.025-2.762-2.419-5.293-5.447-5.643-.06-.007-.126-.018-.195-.029-.15-.024-.305-.048-.461-.048zm.624 2.317c-.269.007-.827.02-1.023.573-.092.258-.08.483.032.667.167.27.486.353.776.398 1.051.164 1.592.729 1.7 1.778.046.449.334.773.717.824l.107.007.049-.001.049-.005c.523-.06.777-.434.754-1.11.009-.707-.372-1.508-1.018-2.146-.65-.64-1.432-1.002-2.143-.985z"/>
    </g>
</svg>
